<?xml version="1.0" encoding="utf-8"?>
<!-- Generator: Adobe Illustrator 16.0.0, SVG Export Plug-In . SVG Version: 6.00 Build 0)  -->
<!DOCTYPE svg PUBLIC "-//W3C//DTD SVG 1.1//EN" "http://www.w3.org/Graphics/SVG/1.1/DTD/svg11.dtd">
<svg version="1.1" id="Layer_1" xmlns="http://www.w3.org/2000/svg" xmlns:xlink="http://www.w3.org/1999/xlink" x="0px" y="0px"
	 width="300px" height="150px" viewBox="0 0 300 150" enable-background="new 0 0 300 150" xml:space="preserve">
<g>
	<path fill="none" stroke="#8DBFC9" stroke-linecap="round" stroke-linejoin="round" stroke-miterlimit="10" d="M112.479,81.604
		c0,0-14.037,19.513-29.042,4.506c-15.006-15.004,4.507-29.043,4.507-29.043l37.209-30.245l17.572,17.571L112.479,81.604z"/>
	
		<line fill="none" stroke="#8DBFC9" stroke-linecap="round" stroke-linejoin="round" stroke-miterlimit="10" x1="83.437" y1="86.109" x2="44.723" y2="124.823"/>
	
		<line fill="none" stroke="#8DBFC9" stroke-linecap="round" stroke-linejoin="round" stroke-miterlimit="10" x1="39.556" y1="119.656" x2="49.889" y2="129.988"/>
</g>
<g>
	<path fill="none" stroke="#8DBFC9" stroke-linecap="round" stroke-linejoin="round" stroke-miterlimit="10" d="M187.523,81.604
		c0,0,14.035,19.513,29.041,4.506c15.006-15.004-4.506-29.043-4.506-29.043l-37.211-30.245l-17.57,17.571L187.523,81.604z"/>
	
		<line fill="none" stroke="#8DBFC9" stroke-linecap="round" stroke-linejoin="round" stroke-miterlimit="10" x1="216.564" y1="86.109" x2="255.279" y2="124.823"/>
	
		<line fill="none" stroke="#8DBFC9" stroke-linecap="round" stroke-linejoin="round" stroke-miterlimit="10" x1="260.445" y1="119.656" x2="250.113" y2="129.988"/>
</g>
<line fill="none" stroke="#8DBFC9" stroke-linecap="round" stroke-linejoin="round" stroke-miterlimit="10" x1="143.971" y1="37.17" x2="141.272" y2="33.168"/>
<line fill="none" stroke="#8DBFC9" stroke-linecap="round" stroke-linejoin="round" stroke-miterlimit="10" x1="155.824" y1="37.17" x2="158.523" y2="33.168"/>
<line fill="none" stroke="#8DBFC9" stroke-linecap="round" stroke-linejoin="round" stroke-miterlimit="10" x1="149.897" y1="32.707" x2="149.897" y2="27.216"/>
<path fill="none" stroke="#8DBFC9" stroke-linecap="round" stroke-linejoin="round" stroke-miterlimit="10" d="M136.369,52.053
	c0,0-24.228,29.991-37.763,18.874C85.668,60.3,79.562,66.916,79.562,66.916"/>
<path fill="none" stroke="#8DBFC9" stroke-linecap="round" stroke-linejoin="round" stroke-miterlimit="10" d="M131.964,57.256
	c0,0,16.395-17.008-12.748,3.874c-11.8,8.26-26.063,6.059-26.063,6.059"/>
<path fill="none" stroke="#8DBFC9" stroke-linecap="round" stroke-linejoin="round" stroke-miterlimit="10" d="M163.609,52.053
	c0,0,24.229,29.991,37.764,18.874c12.938-10.627,19.044-4.011,19.044-4.011"/>
<path fill="none" stroke="#8DBFC9" stroke-linecap="round" stroke-linejoin="round" stroke-miterlimit="10" d="M168.016,57.256
	c0,0-16.395-17.008,12.748,3.874c11.799,8.26,26.063,6.059,26.063,6.059"/>
<line fill="none" stroke="#8DBFC9" stroke-linecap="round" stroke-linejoin="round" stroke-miterlimit="10" x1="153.311" y1="127.564" x2="146.689" y2="120.943"/>
<line fill="none" stroke="#8DBFC9" stroke-linecap="round" stroke-linejoin="round" stroke-miterlimit="10" x1="146.688" y1="127.564" x2="153.311" y2="120.943"/>
</svg>
