<?xml version="1.0" encoding="utf-8"?>
<!-- Generator: Adobe Illustrator 16.0.0, SVG Export Plug-In . SVG Version: 6.00 Build 0)  -->
<!DOCTYPE svg PUBLIC "-//W3C//DTD SVG 1.1//EN" "http://www.w3.org/Graphics/SVG/1.1/DTD/svg11.dtd">
<svg version="1.1" id="Layer_1" xmlns="http://www.w3.org/2000/svg" xmlns:xlink="http://www.w3.org/1999/xlink" x="0px" y="0px"
	 width="300px" height="150px" viewBox="0 0 300 150" enable-background="new 0 0 300 150" xml:space="preserve">
<rect x="0.851" y="95.511" fill="none" stroke="#8DBFC9" stroke-linecap="round" stroke-linejoin="round" stroke-miterlimit="10" width="298.299" height="28.619"/>
<polyline fill="none" stroke="#8DBFC9" stroke-linecap="round" stroke-linejoin="round" stroke-miterlimit="10" points="
	35.703,95.511 35.703,64.059 264.102,64.059 264.102,95.511 "/>
<line fill="none" stroke="#8DBFC9" stroke-linecap="round" stroke-linejoin="round" stroke-miterlimit="10" x1="99.024" y1="60.117" x2="99.024" y2="95.511"/>
<line fill="none" stroke="#8DBFC9" stroke-linecap="round" stroke-linejoin="round" stroke-miterlimit="10" x1="69.853" y1="64.059" x2="69.853" y2="95.511"/>
<line fill="none" stroke="#8DBFC9" stroke-linecap="round" stroke-linejoin="round" stroke-miterlimit="10" x1="230.402" y1="64.059" x2="230.402" y2="95.511"/>
<line fill="none" stroke="#8DBFC9" stroke-linecap="round" stroke-linejoin="round" stroke-miterlimit="10" x1="132.897" y1="64.059" x2="132.897" y2="95.511"/>
<line fill="none" stroke="#8DBFC9" stroke-linecap="round" stroke-linejoin="round" stroke-miterlimit="10" x1="167.046" y1="64.059" x2="167.046" y2="95.511"/>
<line fill="none" stroke="#8DBFC9" stroke-linecap="round" stroke-linejoin="round" stroke-miterlimit="10" x1="200.919" y1="60.082" x2="200.919" y2="95.511"/>
<polyline fill="none" stroke="#8DBFC9" stroke-linecap="round" stroke-linejoin="round" stroke-miterlimit="10" points="
	206.279,61.707 150.008,40.968 93.736,61.707 "/>
<line fill="none" stroke="#8DBFC9" stroke-linecap="round" stroke-linejoin="round" stroke-miterlimit="10" x1="132.897" y1="64.059" x2="150.008" y2="40.968"/>
<line fill="none" stroke="#8DBFC9" stroke-linecap="round" stroke-linejoin="round" stroke-miterlimit="10" x1="132.897" y1="64.059" x2="119.162" y2="52.685"/>
<line fill="none" stroke="#8DBFC9" stroke-linecap="round" stroke-linejoin="round" stroke-miterlimit="10" x1="167.014" y1="64.059" x2="149.903" y2="40.968"/>
<line fill="none" stroke="#8DBFC9" stroke-linecap="round" stroke-linejoin="round" stroke-miterlimit="10" x1="167.014" y1="64.059" x2="180.748" y2="52.685"/>
<polygon fill="none" stroke="#8DBFC9" stroke-linecap="round" stroke-linejoin="round" stroke-miterlimit="10" points="
	182.793,40.605 150.008,34.695 117.222,40.605 150.008,27.437 "/>
<polyline fill="none" stroke="#8DBFC9" stroke-linecap="round" stroke-linejoin="round" stroke-miterlimit="10" points="
	35.703,64.059 32.351,64.059 69.887,54.414 73.516,49.333 118.162,49.333 "/>
<polyline fill="none" stroke="#8DBFC9" stroke-linecap="round" stroke-linejoin="round" stroke-miterlimit="10" points="
	264.207,64.059 267.56,64.059 230.023,54.414 226.395,49.333 181.748,49.333 "/>
<line fill="none" stroke="#8DBFC9" stroke-linecap="round" stroke-linejoin="round" stroke-miterlimit="10" x1="2.453" y1="95.511" x2="2.453" y2="85.971"/>
<line fill="none" stroke="#8DBFC9" stroke-linecap="round" stroke-linejoin="round" stroke-miterlimit="10" x1="2.453" y1="87.492" x2="35.703" y2="87.492"/>
<line fill="none" stroke="#8DBFC9" stroke-linecap="round" stroke-linejoin="round" stroke-miterlimit="10" x1="297.352" y1="95.511" x2="297.352" y2="85.971"/>
<line fill="none" stroke="#8DBFC9" stroke-linecap="round" stroke-linejoin="round" stroke-miterlimit="10" x1="297.352" y1="87.492" x2="264.102" y2="87.492"/>
<rect x="103.016" y="72.802" fill="none" stroke="#8DBFC9" stroke-linecap="round" stroke-linejoin="round" stroke-miterlimit="10" width="10.732" height="17.576"/>
<line fill="none" stroke="#8DBFC9" stroke-linecap="round" stroke-linejoin="round" stroke-miterlimit="10" x1="103.016" y1="78.972" x2="113.749" y2="78.972"/>
<line fill="none" stroke="#8DBFC9" stroke-linecap="round" stroke-linejoin="round" stroke-miterlimit="10" x1="106.646" y1="78.972" x2="106.646" y2="72.802"/>
<line fill="none" stroke="#8DBFC9" stroke-linecap="round" stroke-linejoin="round" stroke-miterlimit="10" x1="110.016" y1="78.972" x2="110.016" y2="72.802"/>
<rect x="103.846" y="101.732" fill="none" stroke="#8DBFC9" stroke-linecap="round" stroke-linejoin="round" stroke-miterlimit="10" width="10.731" height="17.575"/>
<line fill="none" stroke="#8DBFC9" stroke-linecap="round" stroke-linejoin="round" stroke-miterlimit="10" x1="103.846" y1="107.902" x2="114.578" y2="107.902"/>
<line fill="none" stroke="#8DBFC9" stroke-linecap="round" stroke-linejoin="round" stroke-miterlimit="10" x1="107.475" y1="107.902" x2="107.475" y2="101.732"/>
<line fill="none" stroke="#8DBFC9" stroke-linecap="round" stroke-linejoin="round" stroke-miterlimit="10" x1="110.845" y1="107.902" x2="110.845" y2="101.732"/>
<rect x="120.004" y="101.732" fill="none" stroke="#8DBFC9" stroke-linecap="round" stroke-linejoin="round" stroke-miterlimit="10" width="10.732" height="17.575"/>
<line fill="none" stroke="#8DBFC9" stroke-linecap="round" stroke-linejoin="round" stroke-miterlimit="10" x1="120.004" y1="107.902" x2="130.737" y2="107.902"/>
<line fill="none" stroke="#8DBFC9" stroke-linecap="round" stroke-linejoin="round" stroke-miterlimit="10" x1="123.634" y1="107.902" x2="123.634" y2="101.732"/>
<line fill="none" stroke="#8DBFC9" stroke-linecap="round" stroke-linejoin="round" stroke-miterlimit="10" x1="127.004" y1="107.902" x2="127.004" y2="101.732"/>
<rect x="169.348" y="101.732" fill="none" stroke="#8DBFC9" stroke-linecap="round" stroke-linejoin="round" stroke-miterlimit="10" width="10.732" height="17.575"/>
<line fill="none" stroke="#8DBFC9" stroke-linecap="round" stroke-linejoin="round" stroke-miterlimit="10" x1="169.348" y1="107.902" x2="180.08" y2="107.902"/>
<line fill="none" stroke="#8DBFC9" stroke-linecap="round" stroke-linejoin="round" stroke-miterlimit="10" x1="172.977" y1="107.902" x2="172.977" y2="101.732"/>
<line fill="none" stroke="#8DBFC9" stroke-linecap="round" stroke-linejoin="round" stroke-miterlimit="10" x1="176.347" y1="107.902" x2="176.347" y2="101.732"/>
<rect x="185.507" y="101.732" fill="none" stroke="#8DBFC9" stroke-linecap="round" stroke-linejoin="round" stroke-miterlimit="10" width="10.731" height="17.575"/>
<line fill="none" stroke="#8DBFC9" stroke-linecap="round" stroke-linejoin="round" stroke-miterlimit="10" x1="185.507" y1="107.902" x2="196.238" y2="107.902"/>
<line fill="none" stroke="#8DBFC9" stroke-linecap="round" stroke-linejoin="round" stroke-miterlimit="10" x1="189.136" y1="107.902" x2="189.136" y2="101.732"/>
<line fill="none" stroke="#8DBFC9" stroke-linecap="round" stroke-linejoin="round" stroke-miterlimit="10" x1="192.506" y1="107.902" x2="192.506" y2="101.732"/>
<rect x="117.917" y="72.802" fill="none" stroke="#8DBFC9" stroke-linecap="round" stroke-linejoin="round" stroke-miterlimit="10" width="10.732" height="17.576"/>
<line fill="none" stroke="#8DBFC9" stroke-linecap="round" stroke-linejoin="round" stroke-miterlimit="10" x1="117.917" y1="78.972" x2="128.649" y2="78.972"/>
<line fill="none" stroke="#8DBFC9" stroke-linecap="round" stroke-linejoin="round" stroke-miterlimit="10" x1="121.546" y1="78.972" x2="121.546" y2="72.802"/>
<line fill="none" stroke="#8DBFC9" stroke-linecap="round" stroke-linejoin="round" stroke-miterlimit="10" x1="124.917" y1="78.972" x2="124.917" y2="72.802"/>
<rect x="40.002" y="72.802" fill="none" stroke="#8DBFC9" stroke-linecap="round" stroke-linejoin="round" stroke-miterlimit="10" width="10.732" height="17.576"/>
<line fill="none" stroke="#8DBFC9" stroke-linecap="round" stroke-linejoin="round" stroke-miterlimit="10" x1="40.002" y1="78.972" x2="50.734" y2="78.972"/>
<line fill="none" stroke="#8DBFC9" stroke-linecap="round" stroke-linejoin="round" stroke-miterlimit="10" x1="43.632" y1="78.972" x2="43.632" y2="72.802"/>
<line fill="none" stroke="#8DBFC9" stroke-linecap="round" stroke-linejoin="round" stroke-miterlimit="10" x1="47.001" y1="78.972" x2="47.001" y2="72.802"/>
<rect x="54.903" y="72.802" fill="none" stroke="#8DBFC9" stroke-linecap="round" stroke-linejoin="round" stroke-miterlimit="10" width="10.732" height="17.576"/>
<line fill="none" stroke="#8DBFC9" stroke-linecap="round" stroke-linejoin="round" stroke-miterlimit="10" x1="54.903" y1="78.972" x2="65.636" y2="78.972"/>
<line fill="none" stroke="#8DBFC9" stroke-linecap="round" stroke-linejoin="round" stroke-miterlimit="10" x1="58.532" y1="78.972" x2="58.532" y2="72.802"/>
<line fill="none" stroke="#8DBFC9" stroke-linecap="round" stroke-linejoin="round" stroke-miterlimit="10" x1="61.902" y1="78.972" x2="61.902" y2="72.802"/>
<rect x="234.238" y="72.802" fill="none" stroke="#8DBFC9" stroke-linecap="round" stroke-linejoin="round" stroke-miterlimit="10" width="10.732" height="17.576"/>
<line fill="none" stroke="#8DBFC9" stroke-linecap="round" stroke-linejoin="round" stroke-miterlimit="10" x1="234.238" y1="78.972" x2="244.971" y2="78.972"/>
<line fill="none" stroke="#8DBFC9" stroke-linecap="round" stroke-linejoin="round" stroke-miterlimit="10" x1="237.867" y1="78.972" x2="237.867" y2="72.802"/>
<line fill="none" stroke="#8DBFC9" stroke-linecap="round" stroke-linejoin="round" stroke-miterlimit="10" x1="241.237" y1="78.972" x2="241.237" y2="72.802"/>
<rect x="249.139" y="72.802" fill="none" stroke="#8DBFC9" stroke-linecap="round" stroke-linejoin="round" stroke-miterlimit="10" width="10.732" height="17.576"/>
<line fill="none" stroke="#8DBFC9" stroke-linecap="round" stroke-linejoin="round" stroke-miterlimit="10" x1="249.139" y1="78.972" x2="259.871" y2="78.972"/>
<line fill="none" stroke="#8DBFC9" stroke-linecap="round" stroke-linejoin="round" stroke-miterlimit="10" x1="252.769" y1="78.972" x2="252.769" y2="72.802"/>
<line fill="none" stroke="#8DBFC9" stroke-linecap="round" stroke-linejoin="round" stroke-miterlimit="10" x1="256.139" y1="78.972" x2="256.139" y2="72.802"/>
<rect x="171.038" y="72.802" fill="none" stroke="#8DBFC9" stroke-linecap="round" stroke-linejoin="round" stroke-miterlimit="10" width="10.731" height="17.576"/>
<line fill="none" stroke="#8DBFC9" stroke-linecap="round" stroke-linejoin="round" stroke-miterlimit="10" x1="171.038" y1="78.972" x2="181.77" y2="78.972"/>
<line fill="none" stroke="#8DBFC9" stroke-linecap="round" stroke-linejoin="round" stroke-miterlimit="10" x1="174.668" y1="78.972" x2="174.668" y2="72.802"/>
<line fill="none" stroke="#8DBFC9" stroke-linecap="round" stroke-linejoin="round" stroke-miterlimit="10" x1="178.037" y1="78.972" x2="178.037" y2="72.802"/>
<rect x="185.939" y="72.802" fill="none" stroke="#8DBFC9" stroke-linecap="round" stroke-linejoin="round" stroke-miterlimit="10" width="10.731" height="17.576"/>
<line fill="none" stroke="#8DBFC9" stroke-linecap="round" stroke-linejoin="round" stroke-miterlimit="10" x1="185.939" y1="78.972" x2="196.671" y2="78.972"/>
<line fill="none" stroke="#8DBFC9" stroke-linecap="round" stroke-linejoin="round" stroke-miterlimit="10" x1="189.568" y1="78.972" x2="189.568" y2="72.802"/>
<line fill="none" stroke="#8DBFC9" stroke-linecap="round" stroke-linejoin="round" stroke-miterlimit="10" x1="192.938" y1="78.972" x2="192.938" y2="72.802"/>
<rect x="4.146" y="101.732" fill="none" stroke="#8DBFC9" stroke-linecap="round" stroke-linejoin="round" stroke-miterlimit="10" width="29.656" height="22.397"/>
<line fill="none" stroke="#8DBFC9" stroke-linecap="round" stroke-linejoin="round" stroke-miterlimit="10" x1="4.146" y1="106.036" x2="33.802" y2="106.036"/>
<line fill="none" stroke="#8DBFC9" stroke-linecap="round" stroke-linejoin="round" stroke-miterlimit="10" x1="11.768" y1="101.732" x2="11.768" y2="106.036"/>
<line fill="none" stroke="#8DBFC9" stroke-linecap="round" stroke-linejoin="round" stroke-miterlimit="10" x1="18.974" y1="101.758" x2="18.974" y2="124.13"/>
<line fill="none" stroke="#8DBFC9" stroke-linecap="round" stroke-linejoin="round" stroke-miterlimit="10" x1="26.232" y1="101.732" x2="26.232" y2="106.036"/>
<rect x="36.913" y="101.732" fill="none" stroke="#8DBFC9" stroke-linecap="round" stroke-linejoin="round" stroke-miterlimit="10" width="29.656" height="22.397"/>
<line fill="none" stroke="#8DBFC9" stroke-linecap="round" stroke-linejoin="round" stroke-miterlimit="10" x1="36.913" y1="106.036" x2="66.568" y2="106.036"/>
<line fill="none" stroke="#8DBFC9" stroke-linecap="round" stroke-linejoin="round" stroke-miterlimit="10" x1="44.534" y1="101.732" x2="44.534" y2="106.036"/>
<line fill="none" stroke="#8DBFC9" stroke-linecap="round" stroke-linejoin="round" stroke-miterlimit="10" x1="51.74" y1="101.758" x2="51.74" y2="124.13"/>
<line fill="none" stroke="#8DBFC9" stroke-linecap="round" stroke-linejoin="round" stroke-miterlimit="10" x1="58.999" y1="101.732" x2="58.999" y2="106.036"/>
<rect x="69.783" y="101.732" fill="none" stroke="#8DBFC9" stroke-linecap="round" stroke-linejoin="round" stroke-miterlimit="10" width="29.656" height="22.397"/>
<line fill="none" stroke="#8DBFC9" stroke-linecap="round" stroke-linejoin="round" stroke-miterlimit="10" x1="69.783" y1="106.036" x2="99.439" y2="106.036"/>
<line fill="none" stroke="#8DBFC9" stroke-linecap="round" stroke-linejoin="round" stroke-miterlimit="10" x1="77.404" y1="101.732" x2="77.404" y2="106.036"/>
<line fill="none" stroke="#8DBFC9" stroke-linecap="round" stroke-linejoin="round" stroke-miterlimit="10" x1="84.611" y1="101.758" x2="84.611" y2="124.13"/>
<line fill="none" stroke="#8DBFC9" stroke-linecap="round" stroke-linejoin="round" stroke-miterlimit="10" x1="91.869" y1="101.732" x2="91.869" y2="106.036"/>
<rect x="135.18" y="101.732" fill="none" stroke="#8DBFC9" stroke-linecap="round" stroke-linejoin="round" stroke-miterlimit="10" width="29.656" height="22.397"/>
<line fill="none" stroke="#8DBFC9" stroke-linecap="round" stroke-linejoin="round" stroke-miterlimit="10" x1="135.18" y1="106.036" x2="164.836" y2="106.036"/>
<line fill="none" stroke="#8DBFC9" stroke-linecap="round" stroke-linejoin="round" stroke-miterlimit="10" x1="142.802" y1="101.732" x2="142.802" y2="106.036"/>
<line fill="none" stroke="#8DBFC9" stroke-linecap="round" stroke-linejoin="round" stroke-miterlimit="10" x1="150.008" y1="101.758" x2="150.008" y2="106.036"/>
<line fill="none" stroke="#8DBFC9" stroke-linecap="round" stroke-linejoin="round" stroke-miterlimit="10" x1="157.267" y1="101.732" x2="157.267" y2="106.036"/>
<rect x="135.18" y="69.173" fill="none" stroke="#8DBFC9" stroke-linecap="round" stroke-linejoin="round" stroke-miterlimit="10" width="29.656" height="26.338"/>
<line fill="none" stroke="#8DBFC9" stroke-linecap="round" stroke-linejoin="round" stroke-miterlimit="10" x1="135.18" y1="77.416" x2="164.836" y2="77.416"/>
<line fill="none" stroke="#8DBFC9" stroke-linecap="round" stroke-linejoin="round" stroke-miterlimit="10" x1="142.802" y1="69.38" x2="142.802" y2="95.511"/>
<line fill="none" stroke="#8DBFC9" stroke-linecap="round" stroke-linejoin="round" stroke-miterlimit="10" x1="150.008" y1="69.406" x2="150.008" y2="95.511"/>
<line fill="none" stroke="#8DBFC9" stroke-linecap="round" stroke-linejoin="round" stroke-miterlimit="10" x1="157.267" y1="69.38" x2="157.267" y2="95.511"/>
<rect x="200.643" y="101.732" fill="none" stroke="#8DBFC9" stroke-linecap="round" stroke-linejoin="round" stroke-miterlimit="10" width="29.655" height="22.397"/>
<line fill="none" stroke="#8DBFC9" stroke-linecap="round" stroke-linejoin="round" stroke-miterlimit="10" x1="200.643" y1="106.036" x2="230.298" y2="106.036"/>
<line fill="none" stroke="#8DBFC9" stroke-linecap="round" stroke-linejoin="round" stroke-miterlimit="10" x1="208.264" y1="101.732" x2="208.264" y2="106.036"/>
<line fill="none" stroke="#8DBFC9" stroke-linecap="round" stroke-linejoin="round" stroke-miterlimit="10" x1="215.471" y1="101.758" x2="215.471" y2="124.13"/>
<line fill="none" stroke="#8DBFC9" stroke-linecap="round" stroke-linejoin="round" stroke-miterlimit="10" x1="222.729" y1="101.732" x2="222.729" y2="106.036"/>
<rect x="233.408" y="101.732" fill="none" stroke="#8DBFC9" stroke-linecap="round" stroke-linejoin="round" stroke-miterlimit="10" width="29.656" height="22.397"/>
<line fill="none" stroke="#8DBFC9" stroke-linecap="round" stroke-linejoin="round" stroke-miterlimit="10" x1="233.408" y1="106.036" x2="263.064" y2="106.036"/>
<line fill="none" stroke="#8DBFC9" stroke-linecap="round" stroke-linejoin="round" stroke-miterlimit="10" x1="241.03" y1="101.732" x2="241.03" y2="106.036"/>
<line fill="none" stroke="#8DBFC9" stroke-linecap="round" stroke-linejoin="round" stroke-miterlimit="10" x1="248.236" y1="101.758" x2="248.236" y2="124.13"/>
<line fill="none" stroke="#8DBFC9" stroke-linecap="round" stroke-linejoin="round" stroke-miterlimit="10" x1="255.495" y1="101.732" x2="255.495" y2="106.036"/>
<rect x="266.279" y="101.732" fill="none" stroke="#8DBFC9" stroke-linecap="round" stroke-linejoin="round" stroke-miterlimit="10" width="29.656" height="22.397"/>
<line fill="none" stroke="#8DBFC9" stroke-linecap="round" stroke-linejoin="round" stroke-miterlimit="10" x1="266.279" y1="106.036" x2="295.936" y2="106.036"/>
<line fill="none" stroke="#8DBFC9" stroke-linecap="round" stroke-linejoin="round" stroke-miterlimit="10" x1="273.9" y1="101.732" x2="273.9" y2="106.036"/>
<line fill="none" stroke="#8DBFC9" stroke-linecap="round" stroke-linejoin="round" stroke-miterlimit="10" x1="281.107" y1="101.758" x2="281.107" y2="124.13"/>
<line fill="none" stroke="#8DBFC9" stroke-linecap="round" stroke-linejoin="round" stroke-miterlimit="10" x1="288.365" y1="101.732" x2="288.365" y2="106.036"/>
<line fill="none" stroke="#8DBFC9" stroke-linecap="round" stroke-linejoin="round" stroke-miterlimit="10" x1="135.18" y1="73.397" x2="164.836" y2="73.397"/>
<rect x="72.446" y="69.173" fill="none" stroke="#8DBFC9" stroke-linecap="round" stroke-linejoin="round" stroke-miterlimit="10" width="24.089" height="26.338"/>
<line fill="none" stroke="#8DBFC9" stroke-linecap="round" stroke-linejoin="round" stroke-miterlimit="10" x1="72.446" y1="77.416" x2="96.535" y2="77.416"/>
<line fill="none" stroke="#8DBFC9" stroke-linecap="round" stroke-linejoin="round" stroke-miterlimit="10" x1="78.637" y1="69.38" x2="78.637" y2="95.511"/>
<line fill="none" stroke="#8DBFC9" stroke-linecap="round" stroke-linejoin="round" stroke-miterlimit="10" x1="84.491" y1="69.406" x2="84.491" y2="95.511"/>
<line fill="none" stroke="#8DBFC9" stroke-linecap="round" stroke-linejoin="round" stroke-miterlimit="10" x1="90.387" y1="69.38" x2="90.387" y2="95.511"/>
<line fill="none" stroke="#8DBFC9" stroke-linecap="round" stroke-linejoin="round" stroke-miterlimit="10" x1="72.446" y1="73.397" x2="96.535" y2="73.397"/>
<rect x="203.789" y="69.173" fill="none" stroke="#8DBFC9" stroke-linecap="round" stroke-linejoin="round" stroke-miterlimit="10" width="24.09" height="26.338"/>
<line fill="none" stroke="#8DBFC9" stroke-linecap="round" stroke-linejoin="round" stroke-miterlimit="10" x1="203.789" y1="77.416" x2="227.879" y2="77.416"/>
<line fill="none" stroke="#8DBFC9" stroke-linecap="round" stroke-linejoin="round" stroke-miterlimit="10" x1="209.98" y1="69.38" x2="209.98" y2="95.511"/>
<line fill="none" stroke="#8DBFC9" stroke-linecap="round" stroke-linejoin="round" stroke-miterlimit="10" x1="215.834" y1="69.406" x2="215.834" y2="95.511"/>
<line fill="none" stroke="#8DBFC9" stroke-linecap="round" stroke-linejoin="round" stroke-miterlimit="10" x1="221.73" y1="69.38" x2="221.73" y2="95.511"/>
<line fill="none" stroke="#8DBFC9" stroke-linecap="round" stroke-linejoin="round" stroke-miterlimit="10" x1="203.789" y1="73.397" x2="227.879" y2="73.397"/>
<polyline fill="none" stroke="#8DBFC9" stroke-linecap="round" stroke-linejoin="round" stroke-miterlimit="10" points="
	121.396,51.338 121.396,41.85 126.684,40.895 126.684,49.553 "/>
<polyline fill="none" stroke="#8DBFC9" stroke-linecap="round" stroke-linejoin="round" stroke-miterlimit="10" points="
	128.861,48.719 128.861,40.476 134.149,39.521 134.149,46.521 "/>
<polyline fill="none" stroke="#8DBFC9" stroke-linecap="round" stroke-linejoin="round" stroke-miterlimit="10" points="
	136.344,45.702 136.344,39.117 141.633,38.163 141.633,43.503 "/>
<polyline fill="none" stroke="#8DBFC9" stroke-linecap="round" stroke-linejoin="round" stroke-miterlimit="10" points="
	143.741,42.876 143.741,37.724 149.029,36.769 149.029,40.677 "/>
<polyline fill="none" stroke="#8DBFC9" stroke-linecap="round" stroke-linejoin="round" stroke-miterlimit="10" points="
	178.674,51.338 178.674,41.85 173.386,40.895 173.386,49.553 "/>
<polyline fill="none" stroke="#8DBFC9" stroke-linecap="round" stroke-linejoin="round" stroke-miterlimit="10" points="
	171.208,48.719 171.208,40.476 165.92,39.521 165.92,46.521 "/>
<polyline fill="none" stroke="#8DBFC9" stroke-linecap="round" stroke-linejoin="round" stroke-miterlimit="10" points="
	163.726,45.702 163.726,39.117 158.438,38.163 158.438,43.503 "/>
<polyline fill="none" stroke="#8DBFC9" stroke-linecap="round" stroke-linejoin="round" stroke-miterlimit="10" points="
	156.328,42.876 156.328,37.724 151.04,36.769 151.04,40.677 "/>
<line fill="none" stroke="#8DBFC9" stroke-linecap="round" stroke-linejoin="round" stroke-miterlimit="10" x1="118.762" y1="40.328" x2="118.762" y2="52.685"/>
<line fill="none" stroke="#8DBFC9" stroke-linecap="round" stroke-linejoin="round" stroke-miterlimit="10" x1="181.738" y1="40.318" x2="181.738" y2="52.675"/>
</svg>
