<?xml version="1.0" encoding="utf-8"?>
<!-- Generator: Adobe Illustrator 16.0.0, SVG Export Plug-In . SVG Version: 6.00 Build 0)  -->
<!DOCTYPE svg PUBLIC "-//W3C//DTD SVG 1.1//EN" "http://www.w3.org/Graphics/SVG/1.1/DTD/svg11.dtd">
<svg version="1.1" id="Layer_1" xmlns="http://www.w3.org/2000/svg" xmlns:xlink="http://www.w3.org/1999/xlink" x="0px" y="0px"
	 width="300px" height="150px" viewBox="0 0 300 150" enable-background="new 0 0 300 150" xml:space="preserve">
<g>
	<path fill="none" stroke="#8CBEC8" stroke-linecap="round" stroke-linejoin="round" stroke-miterlimit="10" d="M126.951,64.908
		c-16.459,5.725-27.729,17.391-27.729,30.85c0,19.117,22.733,34.615,50.777,34.615c28.043,0,50.777-15.498,50.777-34.615
		c0-13.227-10.883-24.72-26.878-30.547l-0.938-0.399"/>
	
		<ellipse fill="none" stroke="#8CBEC8" stroke-linecap="round" stroke-linejoin="round" stroke-miterlimit="10" cx="149.896" cy="47.862" rx="32.03" ry="24.43"/>
	
		<ellipse fill="none" stroke="#8CBEC8" stroke-linecap="round" stroke-linejoin="round" stroke-miterlimit="10" cx="149.896" cy="46.119" rx="32.03" ry="22.688"/>
	
		<ellipse fill="none" stroke="#8CBEC8" stroke-linecap="round" stroke-linejoin="round" stroke-miterlimit="10" cx="149.896" cy="45.833" rx="29.448" ry="20.287"/>
	
		<ellipse fill="none" stroke="#8CBEC8" stroke-linecap="round" stroke-linejoin="round" stroke-miterlimit="10" cx="149.896" cy="40.063" rx="20.852" ry="14.365"/>
	
		<ellipse fill="none" stroke="#8CBEC8" stroke-linecap="round" stroke-linejoin="round" stroke-miterlimit="10" cx="149.896" cy="41.361" rx="23.238" ry="15.815"/>
	
		<ellipse transform="matrix(0.7281 -0.6855 0.6855 0.7281 -3.2524 109.3793)" fill="none" stroke="#8CBEC8" stroke-linecap="round" stroke-linejoin="round" stroke-miterlimit="10" cx="136.239" cy="58.789" rx="3.866" ry="2.982"/>
	
		<ellipse transform="matrix(0.7938 -0.6081 0.6081 0.7938 -6.7611 90.6892)" fill="none" stroke="#8CBEC8" stroke-linecap="round" stroke-linejoin="round" stroke-miterlimit="10" cx="130.372" cy="55.316" rx="3.833" ry="2.982"/>
	
		<ellipse transform="matrix(0.857 -0.5153 0.5153 0.857 -8.2357 72.3353)" fill="none" stroke="#8CBEC8" stroke-linecap="round" stroke-linejoin="round" stroke-miterlimit="10" cx="126.215" cy="51.007" rx="3.433" ry="2.792"/>
	
		<ellipse transform="matrix(0.9577 -0.2879 0.2879 0.9577 -7.79 37.6193)" fill="none" stroke="#8CBEC8" stroke-linecap="round" stroke-linejoin="round" stroke-miterlimit="10" cx="124.004" cy="45.294" rx="3.212" ry="2.608"/>
	
		<ellipse transform="matrix(0.9827 0.1854 -0.1854 0.9827 9.595 -22.3655)" fill="none" stroke="#8CBEC8" stroke-linecap="round" stroke-linejoin="round" stroke-miterlimit="10" cx="124.358" cy="40.11" rx="2.25" ry="2.018"/>
	
		<ellipse transform="matrix(0.8748 0.4845 -0.4845 0.8748 33.4478 -56.4776)" fill="none" stroke="#8CBEC8" stroke-linecap="round" stroke-linejoin="round" stroke-miterlimit="10" cx="125.989" cy="36.471" rx="1.632" ry="1.577"/>
	
		<ellipse transform="matrix(0.6314 0.7754 -0.7754 0.6314 73.2735 -87.0349)" fill="none" stroke="#8CBEC8" stroke-linecap="round" stroke-linejoin="round" stroke-miterlimit="10" cx="128.19" cy="33.56" rx="1.131" ry="1.329"/>
	
		<ellipse transform="matrix(0.4826 -0.8759 0.8759 0.4826 20.6054 156.4148)" fill="none" stroke="#8CBEC8" stroke-linecap="round" stroke-linejoin="round" stroke-miterlimit="10" cx="142.686" cy="60.768" rx="3.945" ry="3.056"/>
	
		<ellipse transform="matrix(-0.7281 -0.6855 0.6855 -0.7281 242.3272 213.7069)" fill="none" stroke="#8CBEC8" stroke-linecap="round" stroke-linejoin="round" stroke-miterlimit="10" cx="163.551" cy="58.789" rx="3.866" ry="2.982"/>
	
		<ellipse transform="matrix(-0.7938 -0.6081 0.6081 -0.7938 270.2674 202.2583)" fill="none" stroke="#8CBEC8" stroke-linecap="round" stroke-linejoin="round" stroke-miterlimit="10" cx="169.418" cy="55.316" rx="3.833" ry="2.982"/>
	
		<ellipse transform="matrix(-0.857 -0.5153 0.5153 -0.857 296.0438 184.1661)" fill="none" stroke="#8CBEC8" stroke-linecap="round" stroke-linejoin="round" stroke-miterlimit="10" cx="173.575" cy="51.007" rx="3.433" ry="2.792"/>
	
		<ellipse transform="matrix(-0.9577 -0.2879 0.2879 -0.9577 331.0887 139.2809)" fill="none" stroke="#8CBEC8" stroke-linecap="round" stroke-linejoin="round" stroke-miterlimit="10" cx="175.786" cy="45.294" rx="3.212" ry="2.608"/>
	
		<ellipse transform="matrix(-0.9827 0.1854 -0.1854 -0.9827 355.2585 46.9922)" fill="none" stroke="#8CBEC8" stroke-linecap="round" stroke-linejoin="round" stroke-miterlimit="10" cx="175.432" cy="40.11" rx="2.25" ry="2.018"/>
	
		<ellipse transform="matrix(-0.8748 0.4845 -0.4845 -0.8748 343.5099 -15.8356)" fill="none" stroke="#8CBEC8" stroke-linecap="round" stroke-linejoin="round" stroke-miterlimit="10" cx="173.801" cy="36.471" rx="1.632" ry="1.577"/>
	
		<ellipse transform="matrix(-0.6314 0.7754 -0.7754 -0.6314 305.9741 -78.3156)" fill="none" stroke="#8CBEC8" stroke-linecap="round" stroke-linejoin="round" stroke-miterlimit="10" cx="171.6" cy="33.56" rx="1.131" ry="1.329"/>
	
		<ellipse transform="matrix(-0.4826 -0.8759 0.8759 -0.4826 179.695 227.6931)" fill="none" stroke="#8CBEC8" stroke-linecap="round" stroke-linejoin="round" stroke-miterlimit="10" cx="157.104" cy="60.768" rx="3.945" ry="3.056"/>
	
		<ellipse transform="matrix(0.0416 -0.9991 0.9991 0.0416 81.9373 208.9932)" fill="none" stroke="#8CBEC8" stroke-linecap="round" stroke-linejoin="round" stroke-miterlimit="10" cx="149.904" cy="61.788" rx="3.946" ry="3.609"/>
	<g>
		<path fill="#8CBEC8" d="M154.759,27.195l13.079,8.258l-4.248,10.634l-18.631,3.559l-12.411-8.938l4.258-10.656L154.759,27.195
			 M154.789,26.19c-0.049,0-0.099,0.003-0.147,0.011l-18.205,2.897c-0.215,0.035-0.383,0.141-0.437,0.277l-4.594,11.496
			c-0.051,0.129,0.01,0.268,0.16,0.362l12.925,9.308c0.116,0.073,0.271,0.112,0.429,0.112c0.05,0,0.099-0.004,0.146-0.012
			l18.897-3.607c0.214-0.035,0.381-0.14,0.436-0.278l4.592-11.495c0.053-0.13-0.009-0.268-0.158-0.362l-13.617-8.598
			C155.102,26.228,154.947,26.19,154.789,26.19L154.789,26.19z"/>
	</g>
	<line fill="none" stroke="#8CBEC8" stroke-miterlimit="10" x1="144.863" y1="50.095" x2="137.97" y2="51.846"/>
	<line fill="none" stroke="#8CBEC8" stroke-miterlimit="10" x1="144.863" y1="50.095" x2="148.238" y2="54.382"/>
	<line fill="none" stroke="#8CBEC8" stroke-miterlimit="10" x1="163.719" y1="46.4" x2="163.082" y2="51.19"/>
	<line fill="none" stroke="#8CBEC8" stroke-miterlimit="10" x1="163.719" y1="46.4" x2="168.121" y2="47.043"/>
	<line fill="none" stroke="#8CBEC8" stroke-miterlimit="10" x1="168.56" y1="35.316" x2="170.747" y2="40.063"/>
	<line fill="none" stroke="#8CBEC8" stroke-miterlimit="10" x1="132.124" y1="40.794" x2="130.174" y2="44.731"/>
	<line fill="none" stroke="#8CBEC8" stroke-miterlimit="10" x1="132.124" y1="40.794" x2="129.044" y2="38.947"/>
	<polyline fill="none" stroke="#8CBEC8" stroke-linecap="round" stroke-linejoin="round" stroke-miterlimit="10" points="
		137.97,51.846 137.173,45.271 130.174,44.731 	"/>
	
		<line fill="none" stroke="#8CBEC8" stroke-linecap="round" stroke-linejoin="round" stroke-miterlimit="10" x1="129.044" y1="38.947" x2="134.188" y2="33.911"/>
	
		<line fill="none" stroke="#8CBEC8" stroke-linecap="round" stroke-linejoin="round" stroke-miterlimit="10" x1="134.188" y1="33.911" x2="133.783" y2="30.944"/>
	<path fill="none" stroke="#8CBEC8" stroke-linecap="round" stroke-linejoin="round" stroke-miterlimit="10" d="M131.542,33.099"/>
	<line fill="none" stroke="#8CBEC8" stroke-miterlimit="10" x1="163.082" y1="51.19" x2="154.807" y2="48.289"/>
	<line fill="none" stroke="#8CBEC8" stroke-miterlimit="10" x1="154.807" y1="48.289" x2="148.238" y2="54.382"/>
	<line fill="none" stroke="#8CBEC8" stroke-miterlimit="10" x1="168.121" y1="47.043" x2="166.515" y2="40.598"/>
	<line fill="none" stroke="#8CBEC8" stroke-miterlimit="10" x1="166.515" y1="40.598" x2="170.747" y2="39.871"/>
	<line fill="none" stroke="#8CBEC8" stroke-miterlimit="10" x1="167.559" y1="32.428" x2="161.89" y2="30.944"/>
	<line fill="none" stroke="#8CBEC8" stroke-miterlimit="10" x1="161.89" y1="30.944" x2="159.549" y2="27.328"/>
	<line fill="none" stroke="#8CBEC8" stroke-miterlimit="10" x1="140.819" y1="27.127" x2="145.598" y2="27.912"/>
	<line fill="none" stroke="#8CBEC8" stroke-miterlimit="10" x1="145.598" y1="27.912" x2="149.691" y2="25.699"/>
	<path fill="none" stroke="#8CBEC8" stroke-linecap="round" stroke-linejoin="round" stroke-miterlimit="10" d="M205.135,90.862
		c0-14.763-9.111-27.821-23.177-35.761l-1.234-0.588"/>
	<path fill="none" stroke="#8CBEC8" stroke-linecap="round" stroke-linejoin="round" stroke-miterlimit="10" d="M94.865,90.862
		c0-15.122,9.559-28.454,24.209-36.329"/>
	<path fill="none" stroke="#8CBEC8" stroke-linecap="round" stroke-linejoin="round" stroke-miterlimit="10" d="M122.941,61.064
		C105.972,67.786,94.5,80.637,94.5,95.383c0,21.704,24.848,39.299,55.5,39.299s55.5-17.595,55.5-39.299
		c0-14.476-11.054-27.124-27.513-33.942l-1.136-0.378"/>
	<path fill="none" stroke="#8CBEC8" stroke-linecap="round" stroke-linejoin="round" stroke-miterlimit="10" d="M99.223,95.758
		c0,0,10.409,28.309,52.137,28.309s49.418-28.309,49.418-28.309"/>
	<path fill="none" stroke="#8CBEC8" stroke-linecap="round" stroke-linejoin="round" stroke-miterlimit="10" d="M121.878,59.706
		c-0.139,1.004-0.693,1.874-1.582,2.299c-1.52,0.728-3.441-0.122-4.291-1.898c-0.85-1.776-0.307-3.806,1.215-4.534
		c0.715-0.342,1.52-0.335,2.259-0.046"/>
	
		<ellipse transform="matrix(0.9347 -0.3553 0.3553 0.9347 -14.4899 44.5205)" fill="none" stroke="#8CBEC8" stroke-linecap="round" stroke-linejoin="round" stroke-miterlimit="10" cx="113.963" cy="61.709" rx="2.56" ry="3.228"/>
	
		<ellipse transform="matrix(0.9348 -0.3552 0.3552 0.9348 -15.9456 43.0851)" fill="none" stroke="#8CBEC8" stroke-linecap="round" stroke-linejoin="round" stroke-miterlimit="10" cx="109.371" cy="64.971" rx="2.152" ry="2.927"/>
	
		<ellipse transform="matrix(0.9696 -0.2446 0.2446 0.9696 -13.5018 27.9319)" fill="none" stroke="#8CBEC8" stroke-linecap="round" stroke-linejoin="round" stroke-miterlimit="10" cx="105.699" cy="68.322" rx="1.927" ry="2.479"/>
	
		<ellipse transform="matrix(0.8283 -0.5602 0.5602 0.8283 -22.4378 69.9127)" fill="none" stroke="#8CBEC8" stroke-linecap="round" stroke-linejoin="round" stroke-miterlimit="10" cx="102.864" cy="71.57" rx="1.658" ry="2.01"/>
	
		<ellipse transform="matrix(0.6978 -0.7163 0.7163 0.6978 -22.9441 94.6447)" fill="none" stroke="#8CBEC8" stroke-linecap="round" stroke-linejoin="round" stroke-miterlimit="10" cx="100.694" cy="74.514" rx="1.399" ry="1.578"/>
	
		<ellipse transform="matrix(0.4959 -0.8684 0.8684 0.4959 -17.1397 124.999)" fill="none" stroke="#8CBEC8" stroke-linecap="round" stroke-linejoin="round" stroke-miterlimit="10" cx="99.094" cy="77.262" rx="1.112" ry="1.259"/>
	
		<ellipse transform="matrix(0.2939 -0.9558 0.9558 0.2939 -7.6138 149.885)" fill="none" stroke="#8CBEC8" stroke-linecap="round" stroke-linejoin="round" stroke-miterlimit="10" cx="97.638" cy="80.096" rx="1.112" ry="1.027"/>
	<path fill="none" stroke="#8CBEC8" stroke-linecap="round" stroke-linejoin="round" stroke-miterlimit="10" d="M178.109,59.434
		c0.069,1.118,0.642,2.108,1.608,2.571c1.52,0.728,3.441-0.122,4.291-1.898c0.85-1.776,0.307-3.806-1.215-4.534
		c-0.804-0.384-1.72-0.328-2.53,0.074"/>
	
		<ellipse transform="matrix(-0.9347 -0.3553 0.3553 -0.9347 338.0331 185.4996)" fill="none" stroke="#8CBEC8" stroke-linecap="round" stroke-linejoin="round" stroke-miterlimit="10" cx="186.05" cy="61.709" rx="2.56" ry="3.228"/>
	
		<ellipse transform="matrix(-0.9348 -0.3552 0.3552 -0.9348 345.776 193.4211)" fill="none" stroke="#8CBEC8" stroke-linecap="round" stroke-linejoin="round" stroke-miterlimit="10" cx="190.643" cy="64.971" rx="2.152" ry="2.927"/>
	
		<ellipse transform="matrix(-0.9696 -0.2446 0.2446 -0.9696 366.0133 182.102)" fill="none" stroke="#8CBEC8" stroke-linecap="round" stroke-linejoin="round" stroke-miterlimit="10" cx="194.315" cy="68.322" rx="1.927" ry="2.479"/>
	
		<ellipse transform="matrix(-0.8283 -0.5602 0.5602 -0.8283 320.3616 241.3029)" fill="none" stroke="#8CBEC8" stroke-linecap="round" stroke-linejoin="round" stroke-miterlimit="10" cx="197.15" cy="71.57" rx="1.658" ry="2.01"/>
	
		<ellipse transform="matrix(-0.6978 -0.7163 0.7163 -0.6978 285.0305 269.2811)" fill="none" stroke="#8CBEC8" stroke-linecap="round" stroke-linejoin="round" stroke-miterlimit="10" cx="199.319" cy="74.514" rx="1.399" ry="1.578"/>
	
		<ellipse transform="matrix(-0.4959 -0.8684 0.8684 -0.4959 233.463 290.0508)" fill="none" stroke="#8CBEC8" stroke-linecap="round" stroke-linejoin="round" stroke-miterlimit="10" cx="200.919" cy="77.262" rx="1.112" ry="1.259"/>
	
		<ellipse transform="matrix(-0.2939 -0.9558 0.9558 -0.2939 185.2884 297.0731)" fill="none" stroke="#8CBEC8" stroke-linecap="round" stroke-linejoin="round" stroke-miterlimit="10" cx="202.375" cy="80.096" rx="1.112" ry="1.027"/>
</g>
</svg>
